<?xml version="1.0" encoding="utf-8"?>
<!-- Generator: Adobe Illustrator 19.0.0, SVG Export Plug-In . SVG Version: 6.00 Build 0)  -->
<svg version="1.1" id="Layer_1" xmlns="http://www.w3.org/2000/svg" xmlns:xlink="http://www.w3.org/1999/xlink" x="0px" y="0px"
	 viewBox="0 0 15.4 15.2" style="enable-background:new 0 0 15.4 15.2;" xml:space="preserve">
<style type="text/css">
	.st0{fill:none;stroke:#58595B;stroke-width:0.5;stroke-miterlimit:10;}
	.st1{opacity:0.25;fill:url(#XMLID_173_);}
	.st2{fill:url(#XMLID_174_);}
	.st3{fill:url(#XMLID_175_);}
	.st4{opacity:0.2;fill:url(#XMLID_176_);}
	.st5{fill:none;}
	.st6{opacity:0.15;fill:url(#XMLID_177_);}
	.st7{opacity:0.5;fill:url(#XMLID_178_);}
	.st8{fill:url(#XMLID_179_);}
	.st9{opacity:3.000000e-002;fill:none;stroke:#FFFFFF;stroke-width:2;stroke-miterlimit:10;}
	.st10{opacity:0.5;fill:url(#XMLID_180_);}
	.st11{fill:url(#XMLID_188_);}
	.st12{fill:url(#XMLID_189_);}
	.st13{fill:url(#XMLID_190_);}
	.st14{fill:url(#XMLID_191_);}
	.st15{fill:url(#XMLID_192_);}
</style>
<path id="XMLID_144_" class="st0" d="M7.1,6.5L5.8,6.3c-0.2,0-0.3,0-0.5,0.2L4.5,7.4C4.2,7.7,3.6,7.6,3.6,7.1L3.4,5.8
	c0-0.2-0.1-0.3-0.3-0.4L1.9,4.9C1.5,4.7,1.5,4.2,1.9,4L3,3.4C3.2,3.3,3.3,3.1,3.3,3l0.2-1.3c0.1-0.4,0.6-0.6,0.9-0.3l0.9,0.9
	c0.1,0.1,0.3,0.2,0.5,0.1l1.3-0.2C7.5,2.1,7.8,2.6,7.6,3L7,4.1C6.9,4.3,6.9,4.5,7,4.6l0.6,1.2C7.9,6.1,7.5,6.6,7.1,6.5z"/>
<path id="XMLID_145_" class="st0" d="M13.2,11.9l-1.3-0.2c-0.2,0-0.3,0-0.5,0.2l-0.9,0.9c-0.3,0.3-0.8,0.1-0.9-0.3l-0.2-1.3
	c0-0.2-0.1-0.3-0.3-0.4L8,10.3c-0.4-0.2-0.4-0.7,0-0.9l1.2-0.6c0.2-0.1,0.3-0.2,0.3-0.4l0.2-1.3c0.1-0.4,0.6-0.6,0.9-0.3l0.9,0.9
	c0.1,0.1,0.3,0.2,0.5,0.1l1.3-0.2c0.4-0.1,0.8,0.4,0.6,0.7l-0.6,1.2c-0.1,0.2-0.1,0.3,0,0.5l0.6,1.2C14,11.5,13.7,12,13.2,11.9z"/>
<g id="XMLID_150_">
	<radialGradient id="XMLID_173_" cx="9.0975" cy="6.5208" r="2.25" gradientUnits="userSpaceOnUse">
		<stop  offset="0.1" style="stop-color:#000000"/>
		<stop  offset="0.1108" style="stop-color:#000000"/>
		<stop  offset="0.1525" style="stop-color:#050000"/>
		<stop  offset="0.1996" style="stop-color:#211800"/>
		<stop  offset="0.2529" style="stop-color:#34290B"/>
		<stop  offset="0.3152" style="stop-color:#423512"/>
		<stop  offset="0.3922" style="stop-color:#4C3E16"/>
		<stop  offset="0.5002" style="stop-color:#524318"/>
		<stop  offset="0.8" style="stop-color:#544418"/>
		<stop  offset="1" style="stop-color:#000000"/>
	</radialGradient>
	<circle id="XMLID_146_" class="st1" cx="9.1" cy="6.5" r="2.3"/>
	<radialGradient id="XMLID_174_" cx="3.613" cy="10.7308" r="7.500076e-002" gradientUnits="userSpaceOnUse">
		<stop  offset="0" style="stop-color:#CAE095"/>
		<stop  offset="2.389425e-002" style="stop-color:#AFC082"/>
		<stop  offset="9.433836e-002" style="stop-color:#79815A"/>
		<stop  offset="0.1703" style="stop-color:#50543B"/>
		<stop  offset="0.2502" style="stop-color:#333524"/>
		<stop  offset="0.3348" style="stop-color:#1C1D0F"/>
		<stop  offset="0.4256" style="stop-color:#030300"/>
		<stop  offset="0.525" style="stop-color:#000000"/>
		<stop  offset="0.6374" style="stop-color:#000000"/>
		<stop  offset="0.7736" style="stop-color:#000000"/>
		<stop  offset="1" style="stop-color:#000000"/>
	</radialGradient>
	<circle id="XMLID_147_" class="st2" cx="3.6" cy="10.7" r="0.1"/>
	<radialGradient id="XMLID_175_" cx="2.1768" cy="11.8333" r="7.500076e-002" gradientUnits="userSpaceOnUse">
		<stop  offset="0" style="stop-color:#CAE095"/>
		<stop  offset="2.389425e-002" style="stop-color:#AFC082"/>
		<stop  offset="9.433836e-002" style="stop-color:#79815A"/>
		<stop  offset="0.1703" style="stop-color:#50543B"/>
		<stop  offset="0.2502" style="stop-color:#333524"/>
		<stop  offset="0.3348" style="stop-color:#1C1D0F"/>
		<stop  offset="0.4256" style="stop-color:#030300"/>
		<stop  offset="0.525" style="stop-color:#000000"/>
		<stop  offset="0.6374" style="stop-color:#000000"/>
		<stop  offset="0.7736" style="stop-color:#000000"/>
		<stop  offset="1" style="stop-color:#000000"/>
	</radialGradient>
	<circle id="XMLID_148_" class="st3" cx="2.2" cy="11.8" r="0.1"/>
	<radialGradient id="XMLID_176_" cx="2.4536" cy="11.6208" r="0.5625" gradientUnits="userSpaceOnUse">
		<stop  offset="5.000000e-002" style="stop-color:#000000"/>
		<stop  offset="0.1912" style="stop-color:#000800"/>
		<stop  offset="0.3325" style="stop-color:#072D0F"/>
		<stop  offset="0.4638" style="stop-color:#17461D"/>
		<stop  offset="0.5812" style="stop-color:#205A26"/>
		<stop  offset="0.6806" style="stop-color:#26672B"/>
		<stop  offset="0.75" style="stop-color:#286C2C"/>
		<stop  offset="0.7553" style="stop-color:#336C2A"/>
		<stop  offset="0.7931" style="stop-color:#5B6C1A"/>
		<stop  offset="0.8244" style="stop-color:#6E6B07"/>
		<stop  offset="0.8475" style="stop-color:#776B00"/>
		<stop  offset="0.86" style="stop-color:#7B6B00"/>
		<stop  offset="0.8801" style="stop-color:#786800"/>
		<stop  offset="0.898" style="stop-color:#6F6100"/>
		<stop  offset="0.9151" style="stop-color:#635500"/>
		<stop  offset="0.9317" style="stop-color:#524500"/>
		<stop  offset="0.9479" style="stop-color:#3E3300"/>
		<stop  offset="0.9639" style="stop-color:#271E00"/>
		<stop  offset="0.9796" style="stop-color:#090000"/>
		<stop  offset="0.9948" style="stop-color:#000000"/>
		<stop  offset="1" style="stop-color:#000000"/>
	</radialGradient>
	<circle id="XMLID_149_" class="st4" cx="2.5" cy="11.6" r="0.6"/>
	<line id="XMLID_153_" class="st5" x1="7.7" y1="7.6" x2="2.2" y2="11.8"/>
	<radialGradient id="XMLID_177_" cx="7.7134" cy="7.5833" r="1.5" gradientUnits="userSpaceOnUse">
		<stop  offset="0" style="stop-color:#000000"/>
		<stop  offset="0.73" style="stop-color:#93432A"/>
		<stop  offset="1" style="stop-color:#000000"/>
	</radialGradient>
	<circle id="XMLID_154_" class="st6" cx="7.7" cy="7.6" r="1.5"/>
	<radialGradient id="XMLID_178_" cx="7.7134" cy="7.5833" r="0.75" gradientUnits="userSpaceOnUse">
		<stop  offset="0.15" style="stop-color:#FFFFFF"/>
		<stop  offset="0.2134" style="stop-color:#D7C0BE"/>
		<stop  offset="0.2931" style="stop-color:#B68A8A"/>
		<stop  offset="0.362" style="stop-color:#A16A6B"/>
		<stop  offset="0.4166" style="stop-color:#95585B"/>
		<stop  offset="0.45" style="stop-color:#915155"/>
		<stop  offset="0.5442" style="stop-color:#78312F"/>
		<stop  offset="0.6472" style="stop-color:#5C0E05"/>
		<stop  offset="0.7362" style="stop-color:#410000"/>
		<stop  offset="0.8068" style="stop-color:#200000"/>
		<stop  offset="0.85" style="stop-color:#000000"/>
		<stop  offset="0.856" style="stop-color:#120000"/>
		<stop  offset="0.8623" style="stop-color:#300000"/>
		<stop  offset="0.8686" style="stop-color:#470000"/>
		<stop  offset="0.875" style="stop-color:#5C0000"/>
		<stop  offset="0.8815" style="stop-color:#751400"/>
		<stop  offset="0.888" style="stop-color:#912A15"/>
		<stop  offset="0.8945" style="stop-color:#B44126"/>
		<stop  offset="0.9" style="stop-color:#D65836"/>
		<stop  offset="0.9063" style="stop-color:#BD472B"/>
		<stop  offset="0.916" style="stop-color:#9D311B"/>
		<stop  offset="0.9262" style="stop-color:#801D09"/>
		<stop  offset="0.9367" style="stop-color:#690900"/>
		<stop  offset="0.9475" style="stop-color:#530000"/>
		<stop  offset="0.9588" style="stop-color:#410000"/>
		<stop  offset="0.9707" style="stop-color:#290000"/>
		<stop  offset="0.9838" style="stop-color:#0F0000"/>
		<stop  offset="1" style="stop-color:#000000"/>
	</radialGradient>
	<circle id="XMLID_155_" class="st7" cx="7.7" cy="7.6" r="0.8"/>
	<radialGradient id="XMLID_179_" cx="7.7134" cy="7.5833" r="0.625" gradientUnits="userSpaceOnUse">
		<stop  offset="0.15" style="stop-color:#FFFFFF"/>
		<stop  offset="0.2824" style="stop-color:#9C9593"/>
		<stop  offset="0.4253" style="stop-color:#5A5250"/>
		<stop  offset="0.5636" style="stop-color:#302A28"/>
		<stop  offset="0.6936" style="stop-color:#0F0704"/>
		<stop  offset="0.8134" style="stop-color:#000000"/>
		<stop  offset="0.9192" style="stop-color:#000000"/>
		<stop  offset="1" style="stop-color:#000000"/>
	</radialGradient>
	<circle id="XMLID_156_" class="st8" cx="7.7" cy="7.6" r="0.6"/>
	<polyline id="XMLID_157_" class="st9" points="7.7,7.6 9.8,9.9 7.7,7.6 5.7,5.2 7.7,7.6 5.4,9.6 7.7,7.6 10.1,5.5 7.7,7.6 7.7,7.6 
		7.7,7.6 7.7,7.5 7.7,7.6 7.7,7.6 7.7,7.6 7.7,7.5 7.7,7.6 7.9,7.9 7.7,7.6 7.5,7.2 7.7,7.6 7.4,7.8 7.7,7.6 8.1,7.4 7.7,7.6 
		8.7,8.1 7.7,7.6 6.7,7.1 7.7,7.6 7.2,8.6 7.7,7.6 8.2,6.6 7.7,7.6 10.6,8.6 7.7,7.6 4.8,6.6 7.7,7.6 6.7,10.5 7.7,7.6 8.7,4.7 
		7.7,7.6 10.3,9.4 7.7,7.6 5.1,5.8 7.7,7.6 5.9,10.1 7.7,7.6 9.5,5 7.7,7.6 8.5,11 7.7,7.6 6.9,4.2 7.7,7.6 4.3,8.4 7.7,7.6 
		11.1,6.8 7.7,7.6 8.8,7.9 7.7,7.6 6.7,7.3 7.7,7.6 7.4,8.6 7.7,7.6 8,6.5 7.7,7.6 8,7.8 7.7,7.6 7.4,7.3 7.7,7.6 7.5,7.9 7.7,7.6 
		7.9,7.2 7.7,7.6 8.4,7.8 7.7,7.6 7,7.4 7.7,7.6 7.5,8.3 7.7,7.6 7.9,6.9 7.7,7.6 8.5,8.6 7.7,7.6 7,6.6 7.7,7.6 6.7,8.3 7.7,7.6 
		8.7,6.8 7.7,7.6 8.1,8.1 7.7,7.6 7.4,7.1 7.7,7.6 7.2,7.9 7.7,7.6 8.2,7.2 7.7,7.6 8.9,9.5 7.7,7.6 6.6,5.7 7.7,7.6 5.8,8.7 
		7.7,7.6 9.6,6.4 7.7,7.6 8.6,9.7 7.7,7.6 6.8,5.4 7.7,7.6 5.6,8.5 7.7,7.6 9.8,6.7 7.7,7.6 9.7,9.4 7.7,7.6 5.8,5.8 7.7,7.6 
		5.9,9.5 7.7,7.6 9.5,5.6 	"/>
	<radialGradient id="XMLID_180_" cx="2.1768" cy="11.8333" r="1.125" gradientUnits="userSpaceOnUse">
		<stop  offset="0.64" style="stop-color:#000000"/>
		<stop  offset="0.7002" style="stop-color:#000000"/>
		<stop  offset="0.7219" style="stop-color:#000000"/>
		<stop  offset="0.7374" style="stop-color:#000000"/>
		<stop  offset="0.7499" style="stop-color:#000000"/>
		<stop  offset="0.7606" style="stop-color:#000000"/>
		<stop  offset="0.7701" style="stop-color:#000100"/>
		<stop  offset="0.7787" style="stop-color:#001200"/>
		<stop  offset="0.7866" style="stop-color:#002300"/>
		<stop  offset="0.7936" style="stop-color:#003306"/>
		<stop  offset="0.8" style="stop-color:#004510"/>
		<stop  offset="0.8034" style="stop-color:#0F3E0A"/>
		<stop  offset="0.812" style="stop-color:#272F00"/>
		<stop  offset="0.8207" style="stop-color:#302000"/>
		<stop  offset="0.8292" style="stop-color:#351000"/>
		<stop  offset="0.8375" style="stop-color:#380000"/>
		<stop  offset="0.8455" style="stop-color:#390000"/>
		<stop  offset="0.8531" style="stop-color:#3A0000"/>
		<stop  offset="0.86" style="stop-color:#3A0000"/>
		<stop  offset="0.8632" style="stop-color:#310000"/>
		<stop  offset="0.8694" style="stop-color:#220000"/>
		<stop  offset="0.8765" style="stop-color:#150000"/>
		<stop  offset="0.8841" style="stop-color:#090000"/>
		<stop  offset="0.8926" style="stop-color:#010000"/>
		<stop  offset="0.9021" style="stop-color:#000000"/>
		<stop  offset="0.9132" style="stop-color:#000000"/>
		<stop  offset="0.927" style="stop-color:#000000"/>
		<stop  offset="0.9464" style="stop-color:#000000"/>
		<stop  offset="1" style="stop-color:#000000"/>
	</radialGradient>
	<circle id="XMLID_166_" class="st10" cx="2.2" cy="11.8" r="1.1"/>
	<radialGradient id="XMLID_188_" cx="7.8058" cy="7.5124" r="3.834915e-002" gradientUnits="userSpaceOnUse">
		<stop  offset="0.1" style="stop-color:#000000"/>
		<stop  offset="0.1037" style="stop-color:#000000"/>
		<stop  offset="0.2088" style="stop-color:#000000"/>
		<stop  offset="0.3171" style="stop-color:#002427"/>
		<stop  offset="0.4261" style="stop-color:#0B3C44"/>
		<stop  offset="0.5361" style="stop-color:#0F515F"/>
		<stop  offset="0.6474" style="stop-color:#0F6376"/>
		<stop  offset="0.7605" style="stop-color:#0C7089"/>
		<stop  offset="0.8765" style="stop-color:#077995"/>
		<stop  offset="1" style="stop-color:#047C9A"/>
	</radialGradient>
	<circle id="XMLID_167_" class="st11" cx="7.8" cy="7.5" r="0"/>
	<radialGradient id="XMLID_189_" cx="4.487" cy="10.06" r="8.393478e-002" gradientUnits="userSpaceOnUse">
		<stop  offset="0.1" style="stop-color:#000000"/>
		<stop  offset="0.1036" style="stop-color:#000000"/>
		<stop  offset="0.2087" style="stop-color:#000001"/>
		<stop  offset="0.317" style="stop-color:#111220"/>
		<stop  offset="0.426" style="stop-color:#1E2235"/>
		<stop  offset="0.536" style="stop-color:#272D46"/>
		<stop  offset="0.6474" style="stop-color:#2D3653"/>
		<stop  offset="0.7604" style="stop-color:#313C5D"/>
		<stop  offset="0.8765" style="stop-color:#333F62"/>
		<stop  offset="1" style="stop-color:#344064"/>
	</radialGradient>
	<circle id="XMLID_168_" class="st12" cx="4.5" cy="10.1" r="0.1"/>
	<radialGradient id="XMLID_190_" cx="6.9803" cy="8.146" r="5.584717e-002" gradientUnits="userSpaceOnUse">
		<stop  offset="0.1" style="stop-color:#000000"/>
		<stop  offset="0.1031" style="stop-color:#000000"/>
		<stop  offset="0.2083" style="stop-color:#1A0007"/>
		<stop  offset="0.3164" style="stop-color:#44202C"/>
		<stop  offset="0.4256" style="stop-color:#6A3747"/>
		<stop  offset="0.5356" style="stop-color:#8E4C61"/>
		<stop  offset="0.6471" style="stop-color:#AE5D78"/>
		<stop  offset="0.7602" style="stop-color:#C76B89"/>
		<stop  offset="0.8764" style="stop-color:#D67494"/>
		<stop  offset="1" style="stop-color:#DC7698"/>
	</radialGradient>
	<circle id="XMLID_169_" class="st13" cx="7" cy="8.1" r="0.1"/>
	<radialGradient id="XMLID_191_" cx="5.9446" cy="8.9411" r="0.1089" gradientUnits="userSpaceOnUse">
		<stop  offset="0.1" style="stop-color:#14250B"/>
		<stop  offset="0.2032" style="stop-color:#041400"/>
		<stop  offset="0.3288" style="stop-color:#000400"/>
		<stop  offset="0.4574" style="stop-color:#000000"/>
		<stop  offset="0.5875" style="stop-color:#000000"/>
		<stop  offset="0.7197" style="stop-color:#000000"/>
		<stop  offset="0.8555" style="stop-color:#000000"/>
		<stop  offset="1" style="stop-color:#000000"/>
	</radialGradient>
	<circle id="XMLID_170_" class="st14" cx="5.9" cy="8.9" r="0.1"/>
	<radialGradient id="XMLID_192_" cx="5.4695" cy="9.3057" r="0.2014" gradientUnits="userSpaceOnUse">
		<stop  offset="0.1" style="stop-color:#BA3355"/>
		<stop  offset="0.1769" style="stop-color:#8D2742"/>
		<stop  offset="0.2876" style="stop-color:#5C182B"/>
		<stop  offset="0.4013" style="stop-color:#390717"/>
		<stop  offset="0.516" style="stop-color:#1D0000"/>
		<stop  offset="0.6321" style="stop-color:#000000"/>
		<stop  offset="0.7501" style="stop-color:#000000"/>
		<stop  offset="0.8711" style="stop-color:#000000"/>
		<stop  offset="1" style="stop-color:#000000"/>
	</radialGradient>
	<circle id="XMLID_171_" class="st15" cx="5.5" cy="9.3" r="0.2"/>
</g>
</svg>
